<?xml version="1.0" standalone="no"?>
<!DOCTYPE svg PUBLIC "-//W3C//DTD SVG 20010904//EN"
 "http://www.w3.org/TR/2001/REC-SVG-20010904/DTD/svg10.dtd">
<svg version="1.0" xmlns="http://www.w3.org/2000/svg"
 width="1080.000000pt" height="1080.000000pt" viewBox="0 0 1080.000000 1080.000000"
 preserveAspectRatio="xMidYMid meet">

<g transform="translate(0.000000,1080.000000) scale(0.100000,-0.100000)"
fill="#000000" stroke="none">
<path d="M0 5400 l0 -5400 5400 0 5400 0 0 5400 0 5400 -5400 0 -5400 0 0
-5400z m7255 797 c526 -163 822 -668 694 -1187 -28 -117 -114 -288 -189 -377
-153 -184 -371 -313 -594 -352 -83 -15 -3439 -15 -3522 0 -123 21 -284 87
-392 161 -75 50 -224 207 -274 288 -52 83 -109 222 -129 315 -8 35 -13 121
-13 210 0 176 19 264 88 410 114 241 314 420 566 509 163 58 59 55 1940 53
l1735 -2 90 -28z"/>
<path d="M3685 6129 c-413 -60 -742 -419 -757 -825 l-3 -89 2476 -3 c2006 -2
2478 0 2482 11 8 20 -11 191 -28 259 -34 129 -119 279 -216 379 -141 144 -331
240 -534 268 -94 13 -3329 13 -3420 0z m1567 -201 l3 -43 72 -3 72 -3 3 43 c3
42 4 43 40 46 37 3 37 3 40 -40 l3 -43 78 -3 77 -3 0 46 0 46 38 -3 c36 -3 37
-4 40 -45 l3 -43 75 0 c70 0 74 1 74 23 0 51 11 67 45 67 34 0 45 -16 45 -66
0 -13 8 -24 20 -27 29 -7 29 -77 0 -77 -19 0 -20 -8 -22 -197 l-3 -198 -35 0
-35 0 -5 80 -5 80 -77 3 -77 3 -3 -83 -3 -83 -35 0 -35 0 -5 84 -5 85 -70 -3
c-38 -1 -72 -4 -74 -7 -3 -2 -3 -31 -2 -64 3 -85 -3 -100 -45 -100 l-34 0 0
54 c0 29 -3 68 -6 85 l-6 31 -74 0 -73 0 -3 -82 -3 -83 -35 0 -35 0 -3 83 -3
82 -33 0 c-18 0 -48 3 -65 6 -29 6 -32 10 -29 38 3 31 4 31 66 34 l62 3 0 74
0 74 -67 3 -68 3 0 35 0 35 68 3 c66 3 67 3 67 32 0 48 9 60 45 60 33 0 34 -2
37 -42z m-1018 -14 c3 -9 6 -118 6 -244 0 -126 -3 -235 -6 -244 -9 -23 -61
-21 -74 3 -15 29 -14 473 2 489 17 17 65 15 72 -4z m2808 -21 c10 -9 18 -20
18 -25 0 -5 -58 -71 -128 -146 -71 -75 -152 -162 -180 -192 l-52 -55 -109 115
-110 115 -128 -127 c-71 -71 -132 -128 -137 -128 -14 0 -46 31 -46 44 1 6 71
83 156 171 l155 160 26 -30 c44 -52 185 -195 192 -195 3 0 73 70 154 155 82
85 153 155 159 155 6 0 20 -7 30 -17z m-3322 -33 c82 -42 130 -120 130 -210 0
-161 -150 -267 -311 -219 -85 26 -159 128 -159 218 0 56 36 135 78 175 67 63
179 78 262 36z m1121 -245 c3 -99 1 -188 -3 -197 -10 -20 -30 -23 -59 -8 -18
10 -19 23 -19 188 0 191 4 205 50 200 l25 -3 6 -180z m-203 -82 l3 -122 -27
-7 c-49 -12 -59 4 -62 102 -2 49 0 104 3 122 6 31 8 33 43 30 l37 -3 3 -122z
m-204 56 c5 -25 5 -76 1 -113 l-7 -67 -36 3 -37 3 -3 104 c-3 112 1 123 48
119 21 -3 26 -10 34 -49z m3044 -65 c26 -8 39 -48 22 -69 -10 -13 -52 -15
-250 -15 -131 0 -245 3 -254 6 -19 7 -22 70 -3 77 17 8 458 8 485 1z"/>
<path d="M5254 5786 c-3 -7 -4 -40 -2 -72 l3 -59 73 -3 72 -3 0 76 0 75 -70 0
c-50 0 -72 -4 -76 -14z"/>
<path d="M5487 5793 c-2 -4 -2 -39 1 -76 l4 -68 72 3 71 3 0 70 0 70 -72 3
c-39 2 -73 -1 -76 -5z"/>
<path d="M5720 5725 l0 -75 74 0 c41 0 77 3 79 8 3 4 3 37 0 75 l-6 67 -73 0
-74 0 0 -75z"/>
<path d="M3560 5789 c-124 -49 -125 -223 -3 -275 76 -32 158 -1 194 73 58 120
-66 251 -191 202z"/>
<path d="M2942 5068 c27 -149 112 -309 228 -428 117 -120 242 -196 407 -247
l88 -28 1690 -3 c1732 -3 1760 -3 1895 35 173 48 372 194 478 350 75 111 142
275 142 350 l0 23 -2469 0 -2468 0 9 -52z m3076 -114 c198 -82 163 -380 -50
-418 -120 -22 -248 90 -248 218 0 151 159 258 298 200z m-1790 -56 c16 -16 15
-53 -2 -67 -9 -8 -123 -10 -402 -9 l-389 3 -3 28 c-7 60 -27 57 396 57 288 0
391 -3 400 -12z m1250 -30 c3 -32 0 -38 -20 -43 -13 -3 -254 -4 -537 -3 -563
3 -542 1 -527 62 l6 26 538 -2 537 -3 3 -37z m896 -111 c24 -18 20 -145 -6
-161 -35 -21 -53 4 -56 78 -4 88 17 116 62 83z m200 -3 c19 -19 22 -134 4
-152 -18 -18 -56 -14 -68 7 -15 30 -12 113 6 139 18 26 37 28 58 6z m200 0
c11 -11 16 -34 16 -78 0 -66 -11 -86 -45 -86 -34 0 -45 20 -45 86 0 63 15 94
45 94 7 0 21 -7 29 -16z m190 3 c14 -10 16 -25 14 -87 -3 -70 -5 -75 -26 -78
-39 -6 -52 14 -52 84 0 44 5 67 16 78 19 19 25 20 48 3z m205 -1 c7 -9 11 -42
9 -88 -3 -68 -5 -73 -26 -76 -40 -6 -52 14 -52 89 0 54 4 70 18 78 24 14 38
13 51 -3z m205 -8 c18 -26 21 -109 6 -139 -12 -21 -50 -25 -68 -7 -18 18 -15
133 4 152 21 22 40 20 58 -6z m-2469 -78 c3 -11 3 -29 0 -40 -6 -20 -15 -20
-741 -20 l-734 0 0 33 c0 19 3 37 7 40 3 4 334 7 734 7 719 0 728 0 734 -20z"/>
<path d="M5873 4874 c-68 -34 -93 -126 -53 -191 53 -87 189 -82 236 8 58 112
-71 241 -183 183z"/>
</g>
</svg>
